  0
SECTION
  2
HEADER
  9
$ACADVER
  1
AC1009
  9
$EXTMIN
 10
0.0
 20
0.0
 30
0.0
  9
$EXTMAX
 10
1000.0
 20
1000.0
 30
0.0
  9
$FILLMODE
 70
 0
  9
$SPLFRAME
 70
 1
  0
ENDSEC
  0
SECTION
  2
TABLES
  0
TABLE
  2
LAYER
 70
1
  0
LAYER
  2
0
 70
     0
 62
     7
  6
CONTINUOUS
  0
ENDTAB
  0
ENDSEC
  0
SECTION
  2
ENTITIES
  0
LINE
  8
0
 62
     0
 10
0.0950846
 20
103.974
 30
0.0
 11
112.489
 21
103.974
 31
0.0
  0
LINE
  8
0
 62
     0
 10
112.489
 20
103.974
 30
0.0
 11
112.489
 21
0.151584
 31
0.0
  0
LINE
  8
0
 62
     0
 10
112.489
 20
0.151584
 30
0.0
 11
0.0950846
 21
0.151584
 31
0.0
  0
LINE
  8
0
 62
     0
 10
0.0950846
 20
0.151584
 30
0.0
 11
0.0950846
 21
103.974
 31
0.0
  0
LINE
  8
0
 62
     0
 10
75.9615
 20
16.6784
 30
0.0
 11
89.9612
 21
16.6784
 31
0.0
  0
LINE
  8
0
 62
     0
 10
89.9612
 20
16.6784
 30
0.0
 11
89.9612
 21
2.67753
 31
0.0
  0
LINE
  8
0
 62
     0
 10
89.9612
 20
2.67753
 30
0.0
 11
75.9615
 21
2.67753
 31
0.0
  0
LINE
  8
0
 62
     0
 10
75.9615
 20
2.67753
 30
0.0
 11
75.9615
 21
16.6784
 31
0.0
  0
LINE
  8
0
 62
     0
 10
45.9574
 20
16.6784
 30
0.0
 11
59.9571
 21
16.6784
 31
0.0
  0
LINE
  8
0
 62
     0
 10
59.9571
 20
16.6784
 30
0.0
 11
59.9571
 21
2.67753
 31
0.0
  0
LINE
  8
0
 62
     0
 10
59.9571
 20
2.67753
 30
0.0
 11
45.9574
 21
2.67753
 31
0.0
  0
LINE
  8
0
 62
     0
 10
45.9574
 20
2.67753
 30
0.0
 11
45.9574
 21
16.6784
 31
0.0
  0
LINE
  8
0
 62
     0
 10
15.9549
 20
16.6784
 30
0.0
 11
29.9544
 21
16.6784
 31
0.0
  0
LINE
  8
0
 62
     0
 10
29.9544
 20
16.6784
 30
0.0
 11
29.9544
 21
2.67753
 31
0.0
  0
LINE
  8
0
 62
     0
 10
29.9544
 20
2.67753
 30
0.0
 11
15.9549
 21
2.67753
 31
0.0
  0
LINE
  8
0
 62
     0
 10
15.9549
 20
2.67753
 30
0.0
 11
15.9549
 21
16.6784
 31
0.0
  0
LINE
  8
0
 62
     0
 10
95.9637
 20
26.6788
 30
0.0
 11
109.963
 21
26.6788
 31
0.0
  0
LINE
  8
0
 62
     0
 10
109.963
 20
26.6788
 30
0.0
 11
109.963
 21
12.6793
 31
0.0
  0
LINE
  8
0
 62
     0
 10
109.963
 20
12.6793
 30
0.0
 11
95.9637
 21
12.6793
 31
0.0
  0
LINE
  8
0
 62
     0
 10
95.9637
 20
12.6793
 30
0.0
 11
95.9637
 21
26.6788
 31
0.0
  0
LINE
  8
0
 62
     0
 10
75.9615
 20
36.6808
 30
0.0
 11
89.9612
 21
36.6808
 31
0.0
  0
LINE
  8
0
 62
     0
 10
89.9612
 20
36.6808
 30
0.0
 11
89.9612
 21
22.6798
 31
0.0
  0
LINE
  8
0
 62
     0
 10
89.9612
 20
22.6798
 30
0.0
 11
75.9615
 21
22.6798
 31
0.0
  0
LINE
  8
0
 62
     0
 10
75.9615
 20
22.6798
 30
0.0
 11
75.9615
 21
36.6808
 31
0.0
  0
LINE
  8
0
 62
     0
 10
55.958
 20
36.6808
 30
0.0
 11
69.959
 21
36.6808
 31
0.0
  0
LINE
  8
0
 62
     0
 10
69.959
 20
36.6808
 30
0.0
 11
69.959
 21
22.6798
 31
0.0
  0
LINE
  8
0
 62
     0
 10
69.959
 20
22.6798
 30
0.0
 11
55.958
 21
22.6798
 31
0.0
  0
LINE
  8
0
 62
     0
 10
55.958
 20
22.6798
 30
0.0
 11
55.958
 21
36.6808
 31
0.0
  0
LINE
  8
0
 62
     0
 10
35.9572
 20
36.6808
 30
0.0
 11
49.9565
 21
36.6808
 31
0.0
  0
LINE
  8
0
 62
     0
 10
49.9565
 20
36.6808
 30
0.0
 11
49.9565
 21
22.6798
 31
0.0
  0
LINE
  8
0
 62
     0
 10
49.9565
 20
22.6798
 30
0.0
 11
35.9572
 21
22.6798
 31
0.0
  0
LINE
  8
0
 62
     0
 10
35.9572
 20
22.6798
 30
0.0
 11
35.9572
 21
36.6808
 31
0.0
  0
LINE
  8
0
 62
     0
 10
15.9549
 20
36.6808
 30
0.0
 11
29.9544
 21
36.6808
 31
0.0
  0
LINE
  8
0
 62
     0
 10
29.9544
 20
36.6808
 30
0.0
 11
29.9544
 21
22.6798
 31
0.0
  0
LINE
  8
0
 62
     0
 10
29.9544
 20
22.6798
 30
0.0
 11
15.9549
 21
22.6798
 31
0.0
  0
LINE
  8
0
 62
     0
 10
15.9549
 20
22.6798
 30
0.0
 11
15.9549
 21
36.6808
 31
0.0
  0
LINE
  8
0
 62
     0
 10
75.9615
 20
56.6829
 30
0.0
 11
89.9612
 21
56.6829
 31
0.0
  0
LINE
  8
0
 62
     0
 10
89.9612
 20
56.6829
 30
0.0
 11
89.9612
 21
42.6833
 31
0.0
  0
LINE
  8
0
 62
     0
 10
89.9612
 20
42.6833
 30
0.0
 11
75.9615
 21
42.6833
 31
0.0
  0
LINE
  8
0
 62
     0
 10
75.9615
 20
42.6833
 30
0.0
 11
75.9615
 21
56.6829
 31
0.0
  0
LINE
  8
0
 62
     0
 10
55.958
 20
56.6829
 30
0.0
 11
69.959
 21
56.6829
 31
0.0
  0
LINE
  8
0
 62
     0
 10
69.959
 20
56.6829
 30
0.0
 11
69.959
 21
42.6833
 31
0.0
  0
LINE
  8
0
 62
     0
 10
69.959
 20
42.6833
 30
0.0
 11
55.958
 21
42.6833
 31
0.0
  0
LINE
  8
0
 62
     0
 10
55.958
 20
42.6833
 30
0.0
 11
55.958
 21
56.6829
 31
0.0
  0
LINE
  8
0
 62
     0
 10
35.9572
 20
56.6829
 30
0.0
 11
49.9565
 21
56.6829
 31
0.0
  0
LINE
  8
0
 62
     0
 10
49.9565
 20
56.6829
 30
0.0
 11
49.9565
 21
42.6833
 31
0.0
  0
LINE
  8
0
 62
     0
 10
49.9565
 20
42.6833
 30
0.0
 11
35.9572
 21
42.6833
 31
0.0
  0
LINE
  8
0
 62
     0
 10
35.9572
 20
42.6833
 30
0.0
 11
35.9572
 21
56.6829
 31
0.0
  0
LINE
  8
0
 62
     0
 10
15.9549
 20
56.6829
 30
0.0
 11
29.9544
 21
56.6829
 31
0.0
  0
LINE
  8
0
 62
     0
 10
29.9544
 20
56.6829
 30
0.0
 11
29.9544
 21
42.6833
 31
0.0
  0
LINE
  8
0
 62
     0
 10
29.9544
 20
42.6833
 30
0.0
 11
15.9549
 21
42.6833
 31
0.0
  0
LINE
  8
0
 62
     0
 10
15.9549
 20
42.6833
 30
0.0
 11
15.9549
 21
56.6829
 31
0.0
  0
LINE
  8
0
 62
     0
 10
95.9637
 20
66.6831
 30
0.0
 11
109.963
 21
66.6831
 31
0.0
  0
LINE
  8
0
 62
     0
 10
109.963
 20
66.6831
 30
0.0
 11
109.963
 21
52.6838
 31
0.0
  0
LINE
  8
0
 62
     0
 10
109.963
 20
52.6838
 30
0.0
 11
95.9637
 21
52.6838
 31
0.0
  0
LINE
  8
0
 62
     0
 10
95.9637
 20
52.6838
 30
0.0
 11
95.9637
 21
66.6831
 31
0.0
  0
LINE
  8
0
 62
     0
 10
75.9615
 20
76.6851
 30
0.0
 11
89.9612
 21
76.6851
 31
0.0
  0
LINE
  8
0
 62
     0
 10
89.9612
 20
76.6851
 30
0.0
 11
89.9612
 21
62.6854
 31
0.0
  0
LINE
  8
0
 62
     0
 10
89.9612
 20
62.6854
 30
0.0
 11
75.9615
 21
62.6854
 31
0.0
  0
LINE
  8
0
 62
     0
 10
75.9615
 20
62.6854
 30
0.0
 11
75.9615
 21
76.6851
 31
0.0
  0
LINE
  8
0
 62
     0
 10
55.958
 20
76.6851
 30
0.0
 11
69.959
 21
76.6851
 31
0.0
  0
LINE
  8
0
 62
     0
 10
69.959
 20
76.6851
 30
0.0
 11
69.959
 21
62.6854
 31
0.0
  0
LINE
  8
0
 62
     0
 10
69.959
 20
62.6854
 30
0.0
 11
55.958
 21
62.6854
 31
0.0
  0
LINE
  8
0
 62
     0
 10
55.958
 20
62.6854
 30
0.0
 11
55.958
 21
76.6851
 31
0.0
  0
LINE
  8
0
 62
     0
 10
35.9572
 20
76.6851
 30
0.0
 11
49.9565
 21
76.6851
 31
0.0
  0
LINE
  8
0
 62
     0
 10
49.9565
 20
76.6851
 30
0.0
 11
49.9565
 21
62.6854
 31
0.0
  0
LINE
  8
0
 62
     0
 10
49.9565
 20
62.6854
 30
0.0
 11
35.9572
 21
62.6854
 31
0.0
  0
LINE
  8
0
 62
     0
 10
35.9572
 20
62.6854
 30
0.0
 11
35.9572
 21
76.6851
 31
0.0
  0
LINE
  8
0
 62
     0
 10
15.9549
 20
76.6851
 30
0.0
 11
29.9544
 21
76.6851
 31
0.0
  0
LINE
  8
0
 62
     0
 10
29.9544
 20
76.6851
 30
0.0
 11
29.9544
 21
62.6854
 31
0.0
  0
LINE
  8
0
 62
     0
 10
29.9544
 20
62.6854
 30
0.0
 11
15.9549
 21
62.6854
 31
0.0
  0
LINE
  8
0
 62
     0
 10
15.9549
 20
62.6854
 30
0.0
 11
15.9549
 21
76.6851
 31
0.0
  0
LINE
  8
0
 62
     0
 10
95.9637
 20
96.6872
 30
0.0
 11
109.963
 21
96.6872
 31
0.0
  0
LINE
  8
0
 62
     0
 10
109.963
 20
96.6872
 30
0.0
 11
109.963
 21
82.6879
 31
0.0
  0
LINE
  8
0
 62
     0
 10
109.963
 20
82.6879
 30
0.0
 11
95.9637
 21
82.6879
 31
0.0
  0
LINE
  8
0
 62
     0
 10
95.9637
 20
82.6879
 30
0.0
 11
95.9637
 21
96.6872
 31
0.0
  0
LINE
  8
0
 62
     0
 10
75.9615
 20
96.6872
 30
0.0
 11
89.9612
 21
96.6872
 31
0.0
  0
LINE
  8
0
 62
     0
 10
89.9612
 20
96.6872
 30
0.0
 11
89.9612
 21
82.6879
 31
0.0
  0
LINE
  8
0
 62
     0
 10
89.9612
 20
82.6879
 30
0.0
 11
75.9615
 21
82.6879
 31
0.0
  0
LINE
  8
0
 62
     0
 10
75.9615
 20
82.6879
 30
0.0
 11
75.9615
 21
96.6872
 31
0.0
  0
LINE
  8
0
 62
     0
 10
55.958
 20
96.6872
 30
0.0
 11
69.959
 21
96.6872
 31
0.0
  0
LINE
  8
0
 62
     0
 10
69.959
 20
96.6872
 30
0.0
 11
69.959
 21
82.6879
 31
0.0
  0
LINE
  8
0
 62
     0
 10
69.959
 20
82.6879
 30
0.0
 11
55.958
 21
82.6879
 31
0.0
  0
LINE
  8
0
 62
     0
 10
55.958
 20
82.6879
 30
0.0
 11
55.958
 21
96.6872
 31
0.0
  0
LINE
  8
0
 62
     0
 10
35.9572
 20
96.6872
 30
0.0
 11
49.9565
 21
96.6872
 31
0.0
  0
LINE
  8
0
 62
     0
 10
49.9565
 20
96.6872
 30
0.0
 11
49.9565
 21
82.6879
 31
0.0
  0
LINE
  8
0
 62
     0
 10
49.9565
 20
82.6879
 30
0.0
 11
35.9572
 21
82.6879
 31
0.0
  0
LINE
  8
0
 62
     0
 10
35.9572
 20
82.6879
 30
0.0
 11
35.9572
 21
96.6872
 31
0.0
  0
LINE
  8
0
 62
     0
 10
13.5723
 20
96.6872
 30
0.0
 11
27.5732
 21
96.6872
 31
0.0
  0
LINE
  8
0
 62
     0
 10
27.5732
 20
96.6872
 30
0.0
 11
27.5732
 21
82.6879
 31
0.0
  0
LINE
  8
0
 62
     0
 10
27.5732
 20
82.6879
 30
0.0
 11
13.5723
 21
82.6879
 31
0.0
  0
LINE
  8
0
 62
     0
 10
13.5723
 20
82.6879
 30
0.0
 11
13.5723
 21
96.6872
 31
0.0
  0
ENDSEC
  0
EOF
